# xmcd
#
# Track frame offsets: 
#        150
#        18055
#        36786
#        56394
#        86096
#        106547
#        122854
#
# Disc length: 2062 seconds
#
# Revision: 0
# Processed by: cddbd v1.5.2PL0 Copyright (c) Steve Scherf et al.
# Submitted via: ExactAudioCopy v0.95b4
#
DISCID=48080c07
DTITLE=Rooster and The Chickenhawks - 2008
DYEAR=1900
DGENRE=R&B
TTITLE0=Rainy Night In Georgia
TTITLE1=Wonderful World
TTITLE2=Love Won't Let Me Wait
TTITLE3=One Year After Katrina
TTITLE4=You Send Me
TTITLE5=Georgia
TTITLE6=The Mirror
EXTD=
EXTT0=
EXTT1=
EXTT2=
EXTT3=
EXTT4=
EXTT5=
EXTT6=
PLAYORDER=
